<svg width="61" height="65" viewBox="0 0 61 65" fill="none" xmlns="http://www.w3.org/2000/svg">
<rect x="0.5" y="0.5" width="60" height="64" rx="30" fill="#6874E8"/>
<g clip-path="url(#clip0_15_1317)">
<path d="M33.8334 40.75C33.8334 40.9489 33.9212 41.1397 34.0775 41.2803C34.2337 41.421 34.4457 41.5 34.6667 41.5H36.3334C36.5544 41.5 36.7663 41.421 36.9226 41.2803C37.0789 41.1397 37.1667 40.9489 37.1667 40.75V31.75C37.1667 31.5511 37.0789 31.3603 36.9226 31.2197C36.7663 31.079 36.5544 31 36.3334 31H34.6667C34.4457 31 34.2337 31.079 34.0775 31.2197C33.9212 31.3603 33.8334 31.5511 33.8334 31.75V40.75ZM29.6667 41.5C29.4457 41.5 29.2337 41.421 29.0775 41.2803C28.9212 41.1397 28.8334 40.9489 28.8334 40.75V34.75C28.8334 34.5511 28.9212 34.3603 29.0775 34.2197C29.2337 34.079 29.4457 34 29.6667 34H31.3334C31.5544 34 31.7663 34.079 31.9226 34.2197C32.0789 34.3603 32.1667 34.5511 32.1667 34.75V40.75C32.1667 40.9489 32.0789 41.1397 31.9226 41.2803C31.7663 41.421 31.5544 41.5 31.3334 41.5H29.6667ZM24.6667 41.5C24.4457 41.5 24.2337 41.421 24.0775 41.2803C23.9212 41.1397 23.8334 40.9489 23.8334 40.75V37.75C23.8334 37.5511 23.9212 37.3603 24.0775 37.2197C24.2337 37.079 24.4457 37 24.6667 37H26.3334C26.5544 37 26.7663 37.079 26.9226 37.2197C27.0789 37.3603 27.1667 37.5511 27.1667 37.75V40.75C27.1667 40.9489 27.0789 41.1397 26.9226 41.2803C26.7663 41.421 26.5544 41.5 26.3334 41.5H24.6667Z" fill="white"/>
<path d="M40.5 41.5V27.25L33 20.5H23.8333C22.9493 20.5 22.1014 20.8161 21.4763 21.3787C20.8512 21.9413 20.5 22.7044 20.5 23.5V41.5C20.5 42.2956 20.8512 43.0587 21.4763 43.6213C22.1014 44.1839 22.9493 44.5 23.8333 44.5H37.1667C38.0507 44.5 38.8986 44.1839 39.5237 43.6213C40.1488 43.0587 40.5 42.2956 40.5 41.5ZM33 25C33 25.5967 33.2634 26.169 33.7322 26.591C34.2011 27.0129 34.837 27.25 35.5 27.25H38.8333V41.5C38.8333 41.8978 38.6577 42.2794 38.3452 42.5607C38.0326 42.842 37.6087 43 37.1667 43H23.8333C23.3913 43 22.9674 42.842 22.6548 42.5607C22.3423 42.2794 22.1667 41.8978 22.1667 41.5V23.5C22.1667 23.1022 22.3423 22.7206 22.6548 22.4393C22.9674 22.158 23.3913 22 23.8333 22H33V25Z" fill="white"/>
</g>
<defs>
<clipPath id="clip0_15_1317">
<rect width="20" height="24" fill="white" transform="translate(20.5 20.5)"/>
</clipPath>
</defs>
</svg>
