<svg width="65" height="65" viewBox="0 0 65 65" fill="none" xmlns="http://www.w3.org/2000/svg">
<rect width="65" height="65" rx="32.5" fill="#6874E8"/>
<g clip-path="url(#clip0_15_1313)">
<path d="M44.7259 20.1874C44.8542 20.2969 44.9436 20.4449 44.9807 20.6094C45.0179 20.7739 45.0009 20.946 44.9322 21.0999C42.5416 26.4593 37.5214 33.8656 33.8465 37.7249C32.8152 38.8031 31.5453 39.6241 30.1388 40.1218C30.1107 40.4765 30.045 40.9624 29.8888 41.4781C29.5747 42.5078 28.8466 43.789 27.2201 44.1968C25.645 44.5726 24.0124 44.6426 22.4109 44.4031C22.1134 44.354 21.82 44.2835 21.5327 44.1921C21.2678 44.1108 21.0207 43.9798 20.8046 43.8062C20.6617 43.6859 20.552 43.531 20.4859 43.3562C20.4027 43.1326 20.4049 42.8861 20.4921 42.664C20.6406 42.2812 20.9859 42.0703 21.2124 41.9578C21.8281 41.6499 22.189 41.2499 22.5671 40.6671C22.7155 40.4421 22.8546 40.2031 23.0155 39.9296L23.1983 39.6203C23.4343 39.2218 23.7077 38.7765 24.0514 38.2953C24.8764 37.1406 25.928 36.8499 26.7795 36.8953C26.9774 36.9078 27.1587 36.9328 27.3232 36.9703C27.4201 36.7015 27.5451 36.3765 27.6951 36.0203C28.1029 35.0531 28.7232 33.8031 29.5497 32.7874C32.9497 28.6156 39.2058 23.0906 43.7947 20.1249C43.936 20.0338 44.1029 19.9906 44.2707 20.0018C44.4385 20.0131 44.5981 20.0782 44.7259 20.1874ZM27.3514 38.6124C27.1443 38.5213 26.9225 38.4684 26.6967 38.4562C26.3123 38.4359 25.8014 38.5343 25.3233 39.2046C25.0155 39.6343 24.7686 40.0359 24.5421 40.4187L24.378 40.6953C24.2124 40.9781 24.0452 41.2609 23.878 41.5203C23.5613 42.0328 23.1598 42.4877 22.6905 42.8656C23.7686 43.0406 25.403 43.039 26.842 42.6781C27.7154 42.4609 28.1592 41.789 28.3935 41.0218C28.5086 40.6411 28.5747 40.2473 28.5904 39.8499L27.3514 38.6124ZM29.6013 38.6531C29.7888 38.5906 30.0341 38.4968 30.3169 38.3671C31.2164 37.9485 32.0298 37.3656 32.7153 36.6484C35.684 33.5296 39.6089 27.9453 42.1713 23.1624C38.1245 26.1734 33.4747 30.4437 30.7622 33.7749C30.0716 34.6234 29.5201 35.7171 29.1341 36.6281C28.9451 37.0781 28.7998 37.4718 28.7045 37.7531L29.6013 38.6531Z" fill="white"/>
</g>
<defs>
<clipPath id="clip0_15_1313">
<rect width="25" height="25" fill="white" transform="translate(20 20)"/>
</clipPath>
</defs>
</svg>
