<svg width="65" height="65" viewBox="0 0 65 65" fill="none" xmlns="http://www.w3.org/2000/svg">
<rect x="0.5" y="0.5" width="64" height="64" rx="32" fill="#6874E8"/>
<g clip-path="url(#clip0_15_1330)">
<path d="M41.5 22C41.8978 22 42.2794 22.158 42.5607 22.4393C42.842 22.7206 43 23.1022 43 23.5V41.5C43 41.8978 42.842 42.2794 42.5607 42.5607C42.2794 42.842 41.8978 43 41.5 43H23.5C23.1022 43 22.7206 42.842 22.4393 42.5607C22.158 42.2794 22 41.8978 22 41.5V23.5C22 23.1022 22.158 22.7206 22.4393 22.4393C22.7206 22.158 23.1022 22 23.5 22H41.5ZM23.5 20.5C22.7044 20.5 21.9413 20.8161 21.3787 21.3787C20.8161 21.9413 20.5 22.7044 20.5 23.5V41.5C20.5 42.2956 20.8161 43.0587 21.3787 43.6213C21.9413 44.1839 22.7044 44.5 23.5 44.5H41.5C42.2956 44.5 43.0587 44.1839 43.6213 43.6213C44.1839 43.0587 44.5 42.2956 44.5 41.5V23.5C44.5 22.7044 44.1839 21.9413 43.6213 21.3787C43.0587 20.8161 42.2956 20.5 41.5 20.5H23.5Z" fill="white"/>
<path d="M30.781 27.469C30.8508 27.5387 30.9063 27.6214 30.9441 27.7125C30.9819 27.8037 31.0013 27.9013 31.0013 28C31.0013 28.0987 30.9819 28.1963 30.9441 28.2874C30.9063 28.3786 30.8508 28.4613 30.781 28.531L26.8105 32.5L30.781 36.469C30.9218 36.6098 31.0009 36.8008 31.0009 37C31.0009 37.1992 30.9218 37.3902 30.781 37.531C30.6402 37.6718 30.4492 37.7509 30.25 37.7509C30.0508 37.7509 29.8598 37.6718 29.719 37.531L25.219 33.031C25.1492 32.9613 25.0937 32.8786 25.0559 32.7874C25.0181 32.6963 24.9987 32.5986 24.9987 32.5C24.9987 32.4013 25.0181 32.3037 25.0559 32.2125C25.0937 32.1214 25.1492 32.0387 25.219 31.969L29.719 27.469C29.7887 27.3992 29.8714 27.3437 29.9625 27.3059C30.0537 27.2681 30.1513 27.2487 30.25 27.2487C30.3486 27.2487 30.4463 27.2681 30.5374 27.3059C30.6286 27.3437 30.7113 27.3992 30.781 27.469ZM34.219 27.469C34.1492 27.5387 34.0937 27.6214 34.0559 27.7125C34.0181 27.8037 33.9987 27.9013 33.9987 28C33.9987 28.0987 34.0181 28.1963 34.0559 28.2874C34.0937 28.3786 34.1492 28.4613 34.219 28.531L38.1895 32.5L34.219 36.469C34.0782 36.6098 33.9991 36.8008 33.9991 37C33.9991 37.1992 34.0782 37.3902 34.219 37.531C34.3598 37.6718 34.5508 37.7509 34.75 37.7509C34.9492 37.7509 35.1402 37.6718 35.281 37.531L39.781 33.031C39.8508 32.9613 39.9063 32.8786 39.9441 32.7874C39.9819 32.6963 40.0013 32.5986 40.0013 32.5C40.0013 32.4013 39.9819 32.3037 39.9441 32.2125C39.9063 32.1214 39.8508 32.0387 39.781 31.969L35.281 27.469C35.2113 27.3992 35.1286 27.3437 35.0374 27.3059C34.9463 27.2681 34.8486 27.2487 34.75 27.2487C34.6513 27.2487 34.5537 27.2681 34.4625 27.3059C34.3714 27.3437 34.2887 27.3992 34.219 27.469Z" fill="white"/>
</g>
<defs>
<clipPath id="clip0_15_1330">
<rect width="24" height="24" fill="white" transform="translate(20.5 20.5)"/>
</clipPath>
</defs>
</svg>
